<?xml version="1.0" standalone="no"?>
<!DOCTYPE svg PUBLIC "-//W3C//DTD SVG 20010904//EN"
 "http://www.w3.org/TR/2001/REC-SVG-20010904/DTD/svg10.dtd">
<svg version="1.0" xmlns="http://www.w3.org/2000/svg"
 width="500.000000pt" height="500.000000pt" viewBox="0 0 500.000000 500.000000"
 preserveAspectRatio="xMidYMid meet">
<metadata>
Created by potrace 1.11, written by Peter Selinger 2001-2013
</metadata>
<g transform="translate(0.000000,500.000000) scale(0.100000,-0.100000)"
fill="#000000" stroke="none">
<path d="M0 2500 l0 -2500 2500 0 2500 0 0 2500 0 2500 -2500 0 -2500 0 0
-2500z m2188 -8 l2 -2062 -415 0 -415 0 -2 1589 -3 1590 -294 -120 c-162 -65
-298 -119 -303 -119 -4 0 -7 169 -6 376 l3 376 405 218 405 219 310 -2 310 -2
3 -2063z m1860 0 l2 -2062 -415 0 -415 0 -2 1589 -3 1590 -294 -120 c-162 -65
-298 -119 -303 -119 -4 0 -7 169 -6 376 l3 376 405 218 405 219 310 -2 310 -2
3 -2063z"/>
</g>
</svg>
