<svg id="Calque_1" data-name="Calque 1" xmlns="http://www.w3.org/2000/svg" xmlns:xlink="http://www.w3.org/1999/xlink" viewBox="0 0 628.48 416.29"><defs><style>.cls-1{fill:none;}.cls-2{isolation:isolate;}.cls-3{clip-path:url(#clip-path);}.cls-4{fill:#fff;opacity:0.3;}</style><clipPath id="clip-path" transform="translate(71.76 -2.62)"><polygon class="cls-1" points="-71.76 418.92 70.86 2.62 414.1 2.62 556.72 418.92 -71.76 418.92"/></clipPath></defs><title>basic3d</title><g class="cls-2"><g class="cls-3"><path class="cls-4" d="M197.56,149H22.71l-.48,1.41H197.42q0-.18,0-.36l0-.35,0-.35,0-.35m87.81,0H199.56l0,.35,0,.35q0,.18,0,.35t0,.36h86.1q0-.18,0-.36t0-.35l0-.35,0-.35m176.26,0H287.38l0,.35,0,.35,0,.35q0,.18,0,.36h174.6l-.48-1.41m2.59,0h-.59l.49,1.41h.59l-.48-1.41" transform="translate(71.76 -2.62)"/><path class="cls-4" d="M205.3,3.47H129.41l-15.54,69h89.19l-.06-.06-.06-.06-.06-.06-.06-.06-.91-.86h-86L131,3.47H205.3m149.45,0h-1.55l15,67.88H283l-.91.86-.06.06-.06.06-.06.06-.06.06h88.31l-15.43-69" transform="translate(71.76 -2.62)"/><path class="cls-4" d="M242.47,84.2a73.5,73.5,0,0,1-10.95-.81A66.06,66.06,0,0,1,221.37,81a53.33,53.33,0,0,1-8.9-3.71,39,39,0,0,1-7.22-4.89h74.44a39,39,0,0,1-7.22,4.89A53.28,53.28,0,0,1,263.58,81a66.05,66.05,0,0,1-10.15,2.34,73.55,73.55,0,0,1-11,.81M283,71.35H201.91l.91.86.06.06.06.06.06.06.06.06a39,39,0,0,0,7.5,5.36A54.15,54.15,0,0,0,220,81.87a68,68,0,0,0,10.81,2.58,76.78,76.78,0,0,0,23.41,0A68,68,0,0,0,265,81.87a54.17,54.17,0,0,0,9.39-4.07,39,39,0,0,0,7.5-5.36l.06-.06.06-.06.06-.06.06-.06.91-.86" transform="translate(71.76 -2.62)"/><path class="cls-4" d="M205.8,18.31l1.05-14.84h71.24l1.05,14.84H205.8M279.65,3.47H205.3l-1.17,15.74h76.68L279.65,3.47" transform="translate(71.76 -2.62)"/><path class="cls-4" d="M410.16,251.08H294.22l.09.1.09.1.09.1.09.1L296,253H189l1.39-1.49.09-.1.09-.1.09-.1.09-.1H73.63l-37.18,165h2.82L75.52,253H408.27l36,163.13h2.82l-36.92-165" transform="translate(71.76 -2.62)"/><path class="cls-4" d="M193.6,251.08a61.21,61.21,0,0,1,10.25-8.27,67.36,67.36,0,0,1,11.85-6.06,72,72,0,0,1,13-3.74,74.46,74.46,0,0,1,27.54,0,72,72,0,0,1,13,3.74,67.3,67.3,0,0,1,11.85,6.06,61.11,61.11,0,0,1,10.24,8.27H193.6m48.87-21.14a77.1,77.1,0,0,0-14.66,1.4A74.52,74.52,0,0,0,214,235.42,69.44,69.44,0,0,0,201.48,242a62.88,62.88,0,0,0-10.74,9l-.09.1-.09.1-.09.1-.09.1L189,253H296l-1.38-1.49-.09-.1-.09-.1-.09-.1-.09-.1a62.85,62.85,0,0,0-10.74-9,69.47,69.47,0,0,0-12.53-6.62,74.56,74.56,0,0,0-13.82-4.08,77.13,77.13,0,0,0-14.66-1.4" transform="translate(71.76 -2.62)"/><polyline class="cls-4" points="378.42 365.44 250.06 365.44 246.5 413.47 249.32 413.47 252.55 367.98 375.92 367.98 379.14 413.47 381.98 413.47 378.42 365.44"/><path class="cls-4" d="M199.56,149a24.22,24.22,0,0,1,4.58-11.11,34.9,34.9,0,0,1,9.55-8.76,48.74,48.74,0,0,1,13.16-5.75,59.8,59.8,0,0,1,31.25,0,48.72,48.72,0,0,1,13.16,5.75,34.89,34.89,0,0,1,9.55,8.76A24.22,24.22,0,0,1,285.38,149l0,.35,0,.35q0,.18,0,.35t0,.36a22.49,22.49,0,0,1-2.65,12.07,31.31,31.31,0,0,1-8.93,10.21,46.14,46.14,0,0,1-14,7.07,59.49,59.49,0,0,1-35,0,46.15,46.15,0,0,1-14-7.07,31.32,31.32,0,0,1-8.93-10.21,22.48,22.48,0,0,1-2.65-12.07q0-.18,0-.36t0-.35l0-.35,0-.35m42.91-29a61.44,61.44,0,0,0-16.34,2.17,51,51,0,0,0-13.77,6,36.54,36.54,0,0,0-10,9.16,25.35,25.35,0,0,0-4.8,11.64l0,.35,0,.35,0,.35q0,.18,0,.36A23.52,23.52,0,0,0,200.16,163a32.7,32.7,0,0,0,9.33,10.71,48.24,48.24,0,0,0,14.64,7.42,62.27,62.27,0,0,0,36.7,0,48.24,48.24,0,0,0,14.64-7.42A32.71,32.71,0,0,0,284.78,163a23.52,23.52,0,0,0,2.74-12.64q0-.18,0-.36l0-.35,0-.35,0-.35a25.35,25.35,0,0,0-4.8-11.64,36.54,36.54,0,0,0-10-9.16,51,51,0,0,0-13.77-6A61.44,61.44,0,0,0,242.47,120" transform="translate(71.76 -2.62)"/><path class="cls-4" d="M354.76,3.47h57.17L461.64,149l.48,1.41L552.92,416.1H-68L22.24,150.38l.48-1.41L72.11,3.47H354.76m58.42-.85H70.85L-71.76,418.92H556.72L464.13,150.38l-.49-1.41L413.33,3l-.15-.42" transform="translate(71.76 -2.62)"/></g></g></svg>