<?xml version="1.0" encoding="utf-8"?>
<!-- Generator: Adobe Illustrator 21.1.0, SVG Export Plug-In . SVG Version: 6.00 Build 0)  -->
<svg version="1.1" id="face" xmlns="http://www.w3.org/2000/svg" xmlns:xlink="http://www.w3.org/1999/xlink" x="0px" y="0px"
	 viewBox="0 0 128 128" style="enable-background:new 0 0 128 128;" xml:space="preserve">
<style type="text/css">
	.st0{opacity:0.3;enable-background:new    ;}
	.st1{fill-opacity:0;}
</style>
<title>Verratti</title>
<path id="shape" class="st0" d="M87.2,115.1c-0.4-6.4,0.6-18.5,0.6-18.5c2.4-3,3.1-10.4,3.1-10.4c2.1,1.1,5.8-0.6,7.2-3.9
	s1.1-6.5,1.7-8.3s1.3-7.2,0.4-8.7s-4.1-1.5-5.3-0.6c1.1-6.3,2.2-15.8-1-25.1s-9.4-18.2-17.2-22.1c-3.9-2-8.3-3-12.7-3.1
	c-4.4,0.1-8.7,1.1-12.7,3.1c-7.7,3.9-13.9,12.8-17.2,22.1s-2.2,18.7-1,25.1c-1.3-1-4.5-1-5.4,0.6s-0.1,6.9,0.4,8.7s0.3,4.9,1.7,8.3
	s5.1,5.1,7.2,3.9c0,0,0.7,7.5,3.1,10.4c0,0,1,12.1,0.6,18.5c0,0-21.3,6.1-32.4,12.9h111.2C108.5,121.2,87.2,115.1,87.2,115.1z"/>
<rect id="outline" class="st1" width="128" height="128"/>
</svg>
