<?xml version="1.0" encoding="UTF-8"?>
<svg width="444px" height="538px" viewBox="0 0 444 538" version="1.1" xmlns="http://www.w3.org/2000/svg" xmlns:xlink="http://www.w3.org/1999/xlink">
    <!-- Generator: Sketch 48.1 (47250) - http://www.bohemiancoding.com/sketch -->
    <title>pitch</title>
    <desc>Created with Sketch.</desc>
    <defs></defs>
    <g id="Desktop-Copy-5" stroke="none" stroke-width="1" fill="none" fill-rule="evenodd" transform="translate(-471.000000, -143.000000)" opacity="0.3">
        <g id="pitch" transform="translate(471.000000, 143.000000)">
            <rect id="Rectangle-3" fill="#FFFFFF" x="0" y="268" width="444" height="2"></rect>
            <g id="Group" transform="translate(76.000000, 0.000000)" stroke="#FFFFFF" stroke-width="2">
                <rect id="Rectangle-10" x="1" y="1" width="289" height="143"></rect>
                <path d="M101.77902,144 L190.22098,144 C180.452287,157.909156 164.287784,167 146,167 C127.712216,167 111.547713,157.909156 101.77902,144 Z" id="Combined-Shape"></path>
                <rect id="Rectangle-2" x="99" y="1" width="94" height="36"></rect>
            </g>
            <g id="Group-Copy" transform="translate(221.500000, 454.500000) scale(1, -1) translate(-221.500000, -454.500000) translate(76.000000, 371.000000)" stroke="#FFFFFF" stroke-width="2">
                <path d="M1,1 L1,144 L290,144 L290,1 L1,1 Z" id="Rectangle-10"></path>
                <path d="M101.77902,144 L190.22098,144 C180.452287,157.909156 164.287784,167 146,167 C127.712216,167 111.547713,157.909156 101.77902,144 Z" id="Combined-Shape"></path>
                <path d="M99,1 L99,37 L193,37 L193,1 L99,1 Z" id="Rectangle-2"></path>
            </g>
            <circle id="Oval-2" stroke="#FFFFFF" stroke-width="2" cx="222" cy="270" r="44"></circle>
            <polygon id="Path-3" stroke="#FFFFFF" stroke-width="2" points="1 1 75.0485699 1 368.063737 1 441.818703 1 443 537 1 537"></polygon>
        </g>
    </g>
</svg>