<?xml version="1.0" encoding="utf-8"?>
<!-- Generator: Adobe Illustrator 21.1.0, SVG Export Plug-In . SVG Version: 6.00 Build 0)  -->
<svg version="1.1"
	 id="svg2" inkscape:version="0.44.1" sodipodi:docbase="/home2/zerosoul/misc/Wikipedia" sodipodi:docname="/home2/zerosoul/misc/Wikipedia/Replace this image1.svg" sodipodi:version="0.34" xmlns:cc="http://web.resource.org/cc/" xmlns:dc="http://purl.org/dc/elements/1.1/" xmlns:inkscape="http://www.inkscape.org/namespaces/inkscape" xmlns:rdf="http://www.w3.org/1999/02/22-rdf-syntax-ns#" xmlns:sodipodi="http://sodipodi.sourceforge.net/DTD/sodipodi-0.dtd" xmlns:svg="http://www.w3.org/2000/svg"
	 xmlns="http://www.w3.org/2000/svg" xmlns:xlink="http://www.w3.org/1999/xlink" x="0px" y="0px" viewBox="0 0 150 123"
	 style="enable-background:new 0 0 150 123;" xml:space="preserve">
<style type="text/css">
	.st0{fill:#CCCCCC;}
</style>
<sodipodi:namedview  bordercolor="#666666" borderopacity="1.0" gridtolerance="10.0" guidetolerance="10.0" height="150px" id="base" inkscape:current-layer="svg2" inkscape:cx="157.5" inkscape:cy="57.894899" inkscape:pageopacity="0.0" inkscape:pageshadow="2" inkscape:window-height="573" inkscape:window-width="853" inkscape:window-x="44" inkscape:window-y="58" inkscape:zoom="0.88444467" objecttolerance="10.0" pagecolor="#ffffff" width="150px">
	</sodipodi:namedview>
<path id="path622" sodipodi:nodetypes="cssss" class="st0" d="M104.7,49.4c-2.5,24-11.6,40.6-30.3,40.6S47,75,44.1,50
	C41.6,27.6,55.6,8.5,74.4,8.5S106.8,27,104.7,49.4z"/>
<path id="path1873" sodipodi:nodetypes="ccccccccc" class="st0" d="M92.6,82.3c-1.8,3.9-3.2,12.8,2.3,17.3c9.1,7.4,11.8,9.6,23.4,12
	c25.7,5.5,23.3,19.2,28.2,30.3L4.3,141.8c4.2-10.5,2.2-24.3,28.1-30.7c9.4-2.3,13.3-4.5,21.2-11.4c4.9-4.3,3.9-13,2.8-17.7
	C52.5,81.5,94.2,80.8,92.6,82.3z"/>
</svg>
